G75*
%MOIN*%
%OFA0B0*%
%FSLAX25Y25*%
%IPPOS*%
%LPD*%
%AMOC8*
5,1,8,0,0,1.08239X$1,22.5*
%
%ADD10C,0.00000*%
%ADD11C,0.01600*%
%ADD12C,0.00600*%
%ADD13C,0.02200*%
%ADD14C,0.00100*%
%ADD15C,0.01000*%
%ADD16C,0.00500*%
%ADD17C,0.00400*%
%ADD18R,0.03000X0.01800*%
%ADD19R,0.01800X0.03000*%
D10*
X0008740Y0109200D02*
X0264769Y0109200D01*
X0233391Y0131217D02*
X0233374Y0131200D01*
X0233341Y0131200D01*
X0233324Y0131217D01*
X0233391Y0131283D01*
X0233391Y0131217D01*
X0233391Y0131283D02*
X0233374Y0131300D01*
X0233341Y0131300D01*
X0233324Y0131283D01*
X0233324Y0131217D01*
X0233299Y0131250D02*
X0233232Y0131250D01*
X0233282Y0131300D01*
X0233282Y0131200D01*
X0233206Y0131217D02*
X0233190Y0131200D01*
X0233156Y0131200D01*
X0233140Y0131217D01*
X0233206Y0131283D01*
X0233206Y0131217D01*
X0233140Y0131217D02*
X0233140Y0131283D01*
X0233156Y0131300D01*
X0233190Y0131300D01*
X0233206Y0131283D01*
X0233114Y0131250D02*
X0233048Y0131250D01*
X0233022Y0131250D02*
X0233006Y0131233D01*
X0232956Y0131233D01*
X0232956Y0131200D02*
X0232956Y0131300D01*
X0233006Y0131300D01*
X0233022Y0131283D01*
X0233022Y0131250D01*
X0232930Y0131300D02*
X0232863Y0131300D01*
X0232897Y0131300D02*
X0232897Y0131200D01*
X0213788Y0128837D02*
X0213721Y0128770D01*
X0213738Y0128753D01*
X0213771Y0128753D01*
X0213788Y0128770D01*
X0213788Y0128837D01*
X0213771Y0128853D01*
X0213738Y0128853D01*
X0213721Y0128837D01*
X0213721Y0128770D01*
X0213696Y0128803D02*
X0213629Y0128803D01*
X0213679Y0128853D01*
X0213679Y0128753D01*
X0213604Y0128770D02*
X0213587Y0128753D01*
X0213554Y0128753D01*
X0213537Y0128770D01*
X0213604Y0128837D01*
X0213604Y0128770D01*
X0213604Y0128837D02*
X0213587Y0128853D01*
X0213554Y0128853D01*
X0213537Y0128837D01*
X0213537Y0128770D01*
X0213512Y0128803D02*
X0213445Y0128803D01*
X0213420Y0128803D02*
X0213403Y0128786D01*
X0213353Y0128786D01*
X0213353Y0128753D02*
X0213353Y0128853D01*
X0213403Y0128853D01*
X0213420Y0128837D01*
X0213420Y0128803D01*
X0213327Y0128853D02*
X0213261Y0128853D01*
X0213294Y0128853D02*
X0213294Y0128753D01*
X0244064Y0157883D02*
X0244064Y0157983D01*
X0244031Y0157983D02*
X0244098Y0157983D01*
X0244123Y0157983D02*
X0244173Y0157983D01*
X0244190Y0157967D01*
X0244190Y0157933D01*
X0244173Y0157916D01*
X0244123Y0157916D01*
X0244123Y0157883D02*
X0244123Y0157983D01*
X0244215Y0157933D02*
X0244282Y0157933D01*
X0244307Y0157900D02*
X0244374Y0157967D01*
X0244374Y0157900D01*
X0244357Y0157883D01*
X0244324Y0157883D01*
X0244307Y0157900D01*
X0244307Y0157967D01*
X0244324Y0157983D01*
X0244357Y0157983D01*
X0244374Y0157967D01*
X0244399Y0157933D02*
X0244466Y0157933D01*
X0244491Y0157900D02*
X0244558Y0157967D01*
X0244558Y0157900D01*
X0244541Y0157883D01*
X0244508Y0157883D01*
X0244491Y0157900D01*
X0244491Y0157967D01*
X0244508Y0157983D01*
X0244541Y0157983D01*
X0244558Y0157967D01*
X0244449Y0157983D02*
X0244399Y0157933D01*
X0244449Y0157883D02*
X0244449Y0157983D01*
X0244463Y0170081D02*
X0244463Y0170181D01*
X0244513Y0170181D01*
X0244530Y0170164D01*
X0244530Y0170131D01*
X0244513Y0170114D01*
X0244463Y0170114D01*
X0244404Y0170081D02*
X0244404Y0170181D01*
X0244371Y0170181D02*
X0244438Y0170181D01*
X0244555Y0170131D02*
X0244622Y0170131D01*
X0244647Y0170164D02*
X0244664Y0170181D01*
X0244697Y0170181D01*
X0244714Y0170164D01*
X0244647Y0170097D01*
X0244664Y0170081D01*
X0244697Y0170081D01*
X0244714Y0170097D01*
X0244714Y0170164D01*
X0244739Y0170131D02*
X0244806Y0170131D01*
X0244831Y0170164D02*
X0244848Y0170181D01*
X0244881Y0170181D01*
X0244898Y0170164D01*
X0244831Y0170097D01*
X0244848Y0170081D01*
X0244881Y0170081D01*
X0244898Y0170097D01*
X0244898Y0170164D01*
X0244831Y0170164D02*
X0244831Y0170097D01*
X0244789Y0170081D02*
X0244789Y0170181D01*
X0244739Y0170131D01*
X0244647Y0170164D02*
X0244647Y0170097D01*
X0243671Y0183852D02*
X0243637Y0183852D01*
X0243621Y0183869D01*
X0243688Y0183936D01*
X0243688Y0183869D01*
X0243671Y0183852D01*
X0243621Y0183869D02*
X0243621Y0183936D01*
X0243637Y0183952D01*
X0243671Y0183952D01*
X0243688Y0183936D01*
X0243595Y0183902D02*
X0243529Y0183902D01*
X0243579Y0183952D01*
X0243579Y0183852D01*
X0243503Y0183869D02*
X0243487Y0183852D01*
X0243453Y0183852D01*
X0243437Y0183869D01*
X0243503Y0183936D01*
X0243503Y0183869D01*
X0243437Y0183869D02*
X0243437Y0183936D01*
X0243453Y0183952D01*
X0243487Y0183952D01*
X0243503Y0183936D01*
X0243411Y0183902D02*
X0243345Y0183902D01*
X0243319Y0183902D02*
X0243303Y0183886D01*
X0243253Y0183886D01*
X0243253Y0183852D02*
X0243253Y0183952D01*
X0243303Y0183952D01*
X0243319Y0183936D01*
X0243319Y0183902D01*
X0243227Y0183952D02*
X0243160Y0183952D01*
X0243194Y0183952D02*
X0243194Y0183852D01*
X0166344Y0193846D02*
X0166350Y0194329D01*
X0166368Y0194812D01*
X0166397Y0195294D01*
X0166439Y0195775D01*
X0166492Y0196256D01*
X0166557Y0196734D01*
X0166634Y0197211D01*
X0166722Y0197686D01*
X0166822Y0198159D01*
X0166934Y0198629D01*
X0167057Y0199096D01*
X0167192Y0199560D01*
X0167338Y0200021D01*
X0167495Y0200478D01*
X0167663Y0200931D01*
X0167842Y0201379D01*
X0168033Y0201823D01*
X0168234Y0202262D01*
X0168446Y0202697D01*
X0168668Y0203125D01*
X0168901Y0203549D01*
X0169145Y0203966D01*
X0169398Y0204377D01*
X0169662Y0204782D01*
X0169935Y0205181D01*
X0170218Y0205572D01*
X0170510Y0205957D01*
X0170812Y0206334D01*
X0171123Y0206704D01*
X0171443Y0207066D01*
X0171772Y0207420D01*
X0172110Y0207765D01*
X0172455Y0208103D01*
X0172809Y0208432D01*
X0173171Y0208752D01*
X0173541Y0209063D01*
X0173918Y0209365D01*
X0174303Y0209657D01*
X0174694Y0209940D01*
X0175093Y0210213D01*
X0175498Y0210477D01*
X0175909Y0210730D01*
X0176326Y0210974D01*
X0176750Y0211207D01*
X0177178Y0211429D01*
X0177613Y0211641D01*
X0178052Y0211842D01*
X0178496Y0212033D01*
X0178944Y0212212D01*
X0179397Y0212380D01*
X0179854Y0212537D01*
X0180315Y0212683D01*
X0180779Y0212818D01*
X0181246Y0212941D01*
X0181716Y0213053D01*
X0182189Y0213153D01*
X0182664Y0213241D01*
X0183141Y0213318D01*
X0183619Y0213383D01*
X0184100Y0213436D01*
X0184581Y0213478D01*
X0185063Y0213507D01*
X0185546Y0213525D01*
X0186029Y0213531D01*
X0186512Y0213525D01*
X0186995Y0213507D01*
X0187477Y0213478D01*
X0187958Y0213436D01*
X0188439Y0213383D01*
X0188917Y0213318D01*
X0189394Y0213241D01*
X0189869Y0213153D01*
X0190342Y0213053D01*
X0190812Y0212941D01*
X0191279Y0212818D01*
X0191743Y0212683D01*
X0192204Y0212537D01*
X0192661Y0212380D01*
X0193114Y0212212D01*
X0193562Y0212033D01*
X0194006Y0211842D01*
X0194445Y0211641D01*
X0194880Y0211429D01*
X0195308Y0211207D01*
X0195732Y0210974D01*
X0196149Y0210730D01*
X0196560Y0210477D01*
X0196965Y0210213D01*
X0197364Y0209940D01*
X0197755Y0209657D01*
X0198140Y0209365D01*
X0198517Y0209063D01*
X0198887Y0208752D01*
X0199249Y0208432D01*
X0199603Y0208103D01*
X0199948Y0207765D01*
X0200286Y0207420D01*
X0200615Y0207066D01*
X0200935Y0206704D01*
X0201246Y0206334D01*
X0201548Y0205957D01*
X0201840Y0205572D01*
X0202123Y0205181D01*
X0202396Y0204782D01*
X0202660Y0204377D01*
X0202913Y0203966D01*
X0203157Y0203549D01*
X0203390Y0203125D01*
X0203612Y0202697D01*
X0203824Y0202262D01*
X0204025Y0201823D01*
X0204216Y0201379D01*
X0204395Y0200931D01*
X0204563Y0200478D01*
X0204720Y0200021D01*
X0204866Y0199560D01*
X0205001Y0199096D01*
X0205124Y0198629D01*
X0205236Y0198159D01*
X0205336Y0197686D01*
X0205424Y0197211D01*
X0205501Y0196734D01*
X0205566Y0196256D01*
X0205619Y0195775D01*
X0205661Y0195294D01*
X0205690Y0194812D01*
X0205708Y0194329D01*
X0205714Y0193846D01*
X0205708Y0193363D01*
X0205690Y0192880D01*
X0205661Y0192398D01*
X0205619Y0191917D01*
X0205566Y0191436D01*
X0205501Y0190958D01*
X0205424Y0190481D01*
X0205336Y0190006D01*
X0205236Y0189533D01*
X0205124Y0189063D01*
X0205001Y0188596D01*
X0204866Y0188132D01*
X0204720Y0187671D01*
X0204563Y0187214D01*
X0204395Y0186761D01*
X0204216Y0186313D01*
X0204025Y0185869D01*
X0203824Y0185430D01*
X0203612Y0184995D01*
X0203390Y0184567D01*
X0203157Y0184143D01*
X0202913Y0183726D01*
X0202660Y0183315D01*
X0202396Y0182910D01*
X0202123Y0182511D01*
X0201840Y0182120D01*
X0201548Y0181735D01*
X0201246Y0181358D01*
X0200935Y0180988D01*
X0200615Y0180626D01*
X0200286Y0180272D01*
X0199948Y0179927D01*
X0199603Y0179589D01*
X0199249Y0179260D01*
X0198887Y0178940D01*
X0198517Y0178629D01*
X0198140Y0178327D01*
X0197755Y0178035D01*
X0197364Y0177752D01*
X0196965Y0177479D01*
X0196560Y0177215D01*
X0196149Y0176962D01*
X0195732Y0176718D01*
X0195308Y0176485D01*
X0194880Y0176263D01*
X0194445Y0176051D01*
X0194006Y0175850D01*
X0193562Y0175659D01*
X0193114Y0175480D01*
X0192661Y0175312D01*
X0192204Y0175155D01*
X0191743Y0175009D01*
X0191279Y0174874D01*
X0190812Y0174751D01*
X0190342Y0174639D01*
X0189869Y0174539D01*
X0189394Y0174451D01*
X0188917Y0174374D01*
X0188439Y0174309D01*
X0187958Y0174256D01*
X0187477Y0174214D01*
X0186995Y0174185D01*
X0186512Y0174167D01*
X0186029Y0174161D01*
X0185546Y0174167D01*
X0185063Y0174185D01*
X0184581Y0174214D01*
X0184100Y0174256D01*
X0183619Y0174309D01*
X0183141Y0174374D01*
X0182664Y0174451D01*
X0182189Y0174539D01*
X0181716Y0174639D01*
X0181246Y0174751D01*
X0180779Y0174874D01*
X0180315Y0175009D01*
X0179854Y0175155D01*
X0179397Y0175312D01*
X0178944Y0175480D01*
X0178496Y0175659D01*
X0178052Y0175850D01*
X0177613Y0176051D01*
X0177178Y0176263D01*
X0176750Y0176485D01*
X0176326Y0176718D01*
X0175909Y0176962D01*
X0175498Y0177215D01*
X0175093Y0177479D01*
X0174694Y0177752D01*
X0174303Y0178035D01*
X0173918Y0178327D01*
X0173541Y0178629D01*
X0173171Y0178940D01*
X0172809Y0179260D01*
X0172455Y0179589D01*
X0172110Y0179927D01*
X0171772Y0180272D01*
X0171443Y0180626D01*
X0171123Y0180988D01*
X0170812Y0181358D01*
X0170510Y0181735D01*
X0170218Y0182120D01*
X0169935Y0182511D01*
X0169662Y0182910D01*
X0169398Y0183315D01*
X0169145Y0183726D01*
X0168901Y0184143D01*
X0168668Y0184567D01*
X0168446Y0184995D01*
X0168234Y0185430D01*
X0168033Y0185869D01*
X0167842Y0186313D01*
X0167663Y0186761D01*
X0167495Y0187214D01*
X0167338Y0187671D01*
X0167192Y0188132D01*
X0167057Y0188596D01*
X0166934Y0189063D01*
X0166822Y0189533D01*
X0166722Y0190006D01*
X0166634Y0190481D01*
X0166557Y0190958D01*
X0166492Y0191436D01*
X0166439Y0191917D01*
X0166397Y0192398D01*
X0166368Y0192880D01*
X0166350Y0193363D01*
X0166344Y0193846D01*
X0163374Y0159300D02*
X0163391Y0159283D01*
X0163324Y0159217D01*
X0163341Y0159200D01*
X0163374Y0159200D01*
X0163391Y0159217D01*
X0163391Y0159283D01*
X0163374Y0159300D02*
X0163341Y0159300D01*
X0163324Y0159283D01*
X0163324Y0159217D01*
X0163299Y0159250D02*
X0163232Y0159250D01*
X0163282Y0159300D01*
X0163282Y0159200D01*
X0163206Y0159217D02*
X0163190Y0159200D01*
X0163156Y0159200D01*
X0163140Y0159217D01*
X0163206Y0159283D01*
X0163206Y0159217D01*
X0163140Y0159217D02*
X0163140Y0159283D01*
X0163156Y0159300D01*
X0163190Y0159300D01*
X0163206Y0159283D01*
X0163114Y0159250D02*
X0163048Y0159250D01*
X0163022Y0159250D02*
X0163006Y0159233D01*
X0162956Y0159233D01*
X0162956Y0159200D02*
X0162956Y0159300D01*
X0163006Y0159300D01*
X0163022Y0159283D01*
X0163022Y0159250D01*
X0162930Y0159300D02*
X0162863Y0159300D01*
X0162897Y0159300D02*
X0162897Y0159200D01*
X0162877Y0158253D02*
X0162877Y0158237D01*
X0162810Y0158170D01*
X0162810Y0158153D01*
X0162785Y0158153D02*
X0162718Y0158153D01*
X0162752Y0158153D02*
X0162752Y0158253D01*
X0162718Y0158220D01*
X0162693Y0158203D02*
X0162626Y0158203D01*
X0162601Y0158153D02*
X0162534Y0158153D01*
X0162509Y0158170D02*
X0162509Y0158237D01*
X0162492Y0158253D01*
X0162442Y0158253D01*
X0162442Y0158153D01*
X0162492Y0158153D01*
X0162509Y0158170D01*
X0162534Y0158220D02*
X0162568Y0158253D01*
X0162568Y0158153D01*
X0162417Y0158153D02*
X0162417Y0158220D01*
X0162383Y0158253D01*
X0162350Y0158220D01*
X0162350Y0158153D01*
X0162350Y0158203D02*
X0162417Y0158203D01*
X0162325Y0158203D02*
X0162308Y0158187D01*
X0162258Y0158187D01*
X0162233Y0158203D02*
X0162216Y0158187D01*
X0162166Y0158187D01*
X0162166Y0158153D02*
X0162166Y0158253D01*
X0162216Y0158253D01*
X0162233Y0158237D01*
X0162233Y0158203D01*
X0162258Y0158153D02*
X0162258Y0158253D01*
X0162308Y0158253D01*
X0162325Y0158237D01*
X0162325Y0158203D01*
X0162141Y0158253D02*
X0162074Y0158253D01*
X0162107Y0158253D02*
X0162107Y0158153D01*
X0162810Y0158253D02*
X0162877Y0158253D01*
X0146014Y0157690D02*
X0146014Y0157673D01*
X0145947Y0157607D01*
X0145947Y0157590D01*
X0145922Y0157590D02*
X0145855Y0157590D01*
X0145889Y0157590D02*
X0145889Y0157690D01*
X0145855Y0157657D01*
X0145830Y0157640D02*
X0145763Y0157640D01*
X0145738Y0157590D02*
X0145671Y0157590D01*
X0145646Y0157607D02*
X0145646Y0157673D01*
X0145629Y0157690D01*
X0145579Y0157690D01*
X0145579Y0157590D01*
X0145629Y0157590D01*
X0145646Y0157607D01*
X0145671Y0157657D02*
X0145704Y0157690D01*
X0145704Y0157590D01*
X0145554Y0157590D02*
X0145554Y0157657D01*
X0145520Y0157690D01*
X0145487Y0157657D01*
X0145487Y0157590D01*
X0145487Y0157640D02*
X0145554Y0157640D01*
X0145462Y0157640D02*
X0145445Y0157623D01*
X0145395Y0157623D01*
X0145369Y0157640D02*
X0145353Y0157623D01*
X0145303Y0157623D01*
X0145303Y0157590D02*
X0145303Y0157690D01*
X0145353Y0157690D01*
X0145369Y0157673D01*
X0145369Y0157640D01*
X0145395Y0157590D02*
X0145395Y0157690D01*
X0145445Y0157690D01*
X0145462Y0157673D01*
X0145462Y0157640D01*
X0145277Y0157690D02*
X0145211Y0157690D01*
X0145244Y0157690D02*
X0145244Y0157590D01*
X0145947Y0157690D02*
X0146014Y0157690D01*
X0145080Y0153986D02*
X0145097Y0153969D01*
X0145030Y0153903D01*
X0145047Y0153886D01*
X0145080Y0153886D01*
X0145097Y0153903D01*
X0145097Y0153969D01*
X0145080Y0153986D02*
X0145047Y0153986D01*
X0145030Y0153969D01*
X0145030Y0153903D01*
X0145005Y0153936D02*
X0144938Y0153936D01*
X0144988Y0153986D01*
X0144988Y0153886D01*
X0144913Y0153903D02*
X0144896Y0153886D01*
X0144863Y0153886D01*
X0144846Y0153903D01*
X0144913Y0153969D01*
X0144913Y0153903D01*
X0144913Y0153969D02*
X0144896Y0153986D01*
X0144863Y0153986D01*
X0144846Y0153969D01*
X0144846Y0153903D01*
X0144821Y0153936D02*
X0144754Y0153936D01*
X0144728Y0153936D02*
X0144712Y0153919D01*
X0144662Y0153919D01*
X0144662Y0153886D02*
X0144662Y0153986D01*
X0144712Y0153986D01*
X0144728Y0153969D01*
X0144728Y0153936D01*
X0144636Y0153986D02*
X0144570Y0153986D01*
X0144603Y0153986D02*
X0144603Y0153886D01*
X0125898Y0157106D02*
X0125882Y0157089D01*
X0125848Y0157089D01*
X0125832Y0157106D01*
X0125898Y0157173D01*
X0125898Y0157106D01*
X0125832Y0157106D02*
X0125832Y0157173D01*
X0125848Y0157189D01*
X0125882Y0157189D01*
X0125898Y0157173D01*
X0125806Y0157139D02*
X0125740Y0157139D01*
X0125790Y0157189D01*
X0125790Y0157089D01*
X0125714Y0157106D02*
X0125698Y0157089D01*
X0125664Y0157089D01*
X0125648Y0157106D01*
X0125714Y0157173D01*
X0125714Y0157106D01*
X0125648Y0157106D02*
X0125648Y0157173D01*
X0125664Y0157189D01*
X0125698Y0157189D01*
X0125714Y0157173D01*
X0125622Y0157139D02*
X0125556Y0157139D01*
X0125530Y0157139D02*
X0125513Y0157123D01*
X0125463Y0157123D01*
X0125463Y0157089D02*
X0125463Y0157189D01*
X0125513Y0157189D01*
X0125530Y0157173D01*
X0125530Y0157139D01*
X0125438Y0157189D02*
X0125371Y0157189D01*
X0125405Y0157189D02*
X0125405Y0157089D01*
X0124589Y0155872D02*
X0124589Y0155856D01*
X0124522Y0155789D01*
X0124522Y0155772D01*
X0124496Y0155772D02*
X0124430Y0155772D01*
X0124463Y0155772D02*
X0124463Y0155872D01*
X0124430Y0155839D01*
X0124404Y0155822D02*
X0124338Y0155822D01*
X0124312Y0155772D02*
X0124246Y0155772D01*
X0124220Y0155789D02*
X0124220Y0155856D01*
X0124204Y0155872D01*
X0124154Y0155872D01*
X0124154Y0155772D01*
X0124204Y0155772D01*
X0124220Y0155789D01*
X0124246Y0155839D02*
X0124279Y0155872D01*
X0124279Y0155772D01*
X0124128Y0155772D02*
X0124128Y0155839D01*
X0124095Y0155872D01*
X0124061Y0155839D01*
X0124061Y0155772D01*
X0124061Y0155822D02*
X0124128Y0155822D01*
X0124036Y0155822D02*
X0124019Y0155806D01*
X0123969Y0155806D01*
X0123944Y0155822D02*
X0123927Y0155806D01*
X0123877Y0155806D01*
X0123877Y0155772D02*
X0123877Y0155872D01*
X0123927Y0155872D01*
X0123944Y0155856D01*
X0123944Y0155822D01*
X0123969Y0155772D02*
X0123969Y0155872D01*
X0124019Y0155872D01*
X0124036Y0155856D01*
X0124036Y0155822D01*
X0123852Y0155872D02*
X0123785Y0155872D01*
X0123819Y0155872D02*
X0123819Y0155772D01*
X0124522Y0155872D02*
X0124589Y0155872D01*
X0067919Y0193846D02*
X0067925Y0194329D01*
X0067943Y0194812D01*
X0067972Y0195294D01*
X0068014Y0195775D01*
X0068067Y0196256D01*
X0068132Y0196734D01*
X0068209Y0197211D01*
X0068297Y0197686D01*
X0068397Y0198159D01*
X0068509Y0198629D01*
X0068632Y0199096D01*
X0068767Y0199560D01*
X0068913Y0200021D01*
X0069070Y0200478D01*
X0069238Y0200931D01*
X0069417Y0201379D01*
X0069608Y0201823D01*
X0069809Y0202262D01*
X0070021Y0202697D01*
X0070243Y0203125D01*
X0070476Y0203549D01*
X0070720Y0203966D01*
X0070973Y0204377D01*
X0071237Y0204782D01*
X0071510Y0205181D01*
X0071793Y0205572D01*
X0072085Y0205957D01*
X0072387Y0206334D01*
X0072698Y0206704D01*
X0073018Y0207066D01*
X0073347Y0207420D01*
X0073685Y0207765D01*
X0074030Y0208103D01*
X0074384Y0208432D01*
X0074746Y0208752D01*
X0075116Y0209063D01*
X0075493Y0209365D01*
X0075878Y0209657D01*
X0076269Y0209940D01*
X0076668Y0210213D01*
X0077073Y0210477D01*
X0077484Y0210730D01*
X0077901Y0210974D01*
X0078325Y0211207D01*
X0078753Y0211429D01*
X0079188Y0211641D01*
X0079627Y0211842D01*
X0080071Y0212033D01*
X0080519Y0212212D01*
X0080972Y0212380D01*
X0081429Y0212537D01*
X0081890Y0212683D01*
X0082354Y0212818D01*
X0082821Y0212941D01*
X0083291Y0213053D01*
X0083764Y0213153D01*
X0084239Y0213241D01*
X0084716Y0213318D01*
X0085194Y0213383D01*
X0085675Y0213436D01*
X0086156Y0213478D01*
X0086638Y0213507D01*
X0087121Y0213525D01*
X0087604Y0213531D01*
X0088087Y0213525D01*
X0088570Y0213507D01*
X0089052Y0213478D01*
X0089533Y0213436D01*
X0090014Y0213383D01*
X0090492Y0213318D01*
X0090969Y0213241D01*
X0091444Y0213153D01*
X0091917Y0213053D01*
X0092387Y0212941D01*
X0092854Y0212818D01*
X0093318Y0212683D01*
X0093779Y0212537D01*
X0094236Y0212380D01*
X0094689Y0212212D01*
X0095137Y0212033D01*
X0095581Y0211842D01*
X0096020Y0211641D01*
X0096455Y0211429D01*
X0096883Y0211207D01*
X0097307Y0210974D01*
X0097724Y0210730D01*
X0098135Y0210477D01*
X0098540Y0210213D01*
X0098939Y0209940D01*
X0099330Y0209657D01*
X0099715Y0209365D01*
X0100092Y0209063D01*
X0100462Y0208752D01*
X0100824Y0208432D01*
X0101178Y0208103D01*
X0101523Y0207765D01*
X0101861Y0207420D01*
X0102190Y0207066D01*
X0102510Y0206704D01*
X0102821Y0206334D01*
X0103123Y0205957D01*
X0103415Y0205572D01*
X0103698Y0205181D01*
X0103971Y0204782D01*
X0104235Y0204377D01*
X0104488Y0203966D01*
X0104732Y0203549D01*
X0104965Y0203125D01*
X0105187Y0202697D01*
X0105399Y0202262D01*
X0105600Y0201823D01*
X0105791Y0201379D01*
X0105970Y0200931D01*
X0106138Y0200478D01*
X0106295Y0200021D01*
X0106441Y0199560D01*
X0106576Y0199096D01*
X0106699Y0198629D01*
X0106811Y0198159D01*
X0106911Y0197686D01*
X0106999Y0197211D01*
X0107076Y0196734D01*
X0107141Y0196256D01*
X0107194Y0195775D01*
X0107236Y0195294D01*
X0107265Y0194812D01*
X0107283Y0194329D01*
X0107289Y0193846D01*
X0107283Y0193363D01*
X0107265Y0192880D01*
X0107236Y0192398D01*
X0107194Y0191917D01*
X0107141Y0191436D01*
X0107076Y0190958D01*
X0106999Y0190481D01*
X0106911Y0190006D01*
X0106811Y0189533D01*
X0106699Y0189063D01*
X0106576Y0188596D01*
X0106441Y0188132D01*
X0106295Y0187671D01*
X0106138Y0187214D01*
X0105970Y0186761D01*
X0105791Y0186313D01*
X0105600Y0185869D01*
X0105399Y0185430D01*
X0105187Y0184995D01*
X0104965Y0184567D01*
X0104732Y0184143D01*
X0104488Y0183726D01*
X0104235Y0183315D01*
X0103971Y0182910D01*
X0103698Y0182511D01*
X0103415Y0182120D01*
X0103123Y0181735D01*
X0102821Y0181358D01*
X0102510Y0180988D01*
X0102190Y0180626D01*
X0101861Y0180272D01*
X0101523Y0179927D01*
X0101178Y0179589D01*
X0100824Y0179260D01*
X0100462Y0178940D01*
X0100092Y0178629D01*
X0099715Y0178327D01*
X0099330Y0178035D01*
X0098939Y0177752D01*
X0098540Y0177479D01*
X0098135Y0177215D01*
X0097724Y0176962D01*
X0097307Y0176718D01*
X0096883Y0176485D01*
X0096455Y0176263D01*
X0096020Y0176051D01*
X0095581Y0175850D01*
X0095137Y0175659D01*
X0094689Y0175480D01*
X0094236Y0175312D01*
X0093779Y0175155D01*
X0093318Y0175009D01*
X0092854Y0174874D01*
X0092387Y0174751D01*
X0091917Y0174639D01*
X0091444Y0174539D01*
X0090969Y0174451D01*
X0090492Y0174374D01*
X0090014Y0174309D01*
X0089533Y0174256D01*
X0089052Y0174214D01*
X0088570Y0174185D01*
X0088087Y0174167D01*
X0087604Y0174161D01*
X0087121Y0174167D01*
X0086638Y0174185D01*
X0086156Y0174214D01*
X0085675Y0174256D01*
X0085194Y0174309D01*
X0084716Y0174374D01*
X0084239Y0174451D01*
X0083764Y0174539D01*
X0083291Y0174639D01*
X0082821Y0174751D01*
X0082354Y0174874D01*
X0081890Y0175009D01*
X0081429Y0175155D01*
X0080972Y0175312D01*
X0080519Y0175480D01*
X0080071Y0175659D01*
X0079627Y0175850D01*
X0079188Y0176051D01*
X0078753Y0176263D01*
X0078325Y0176485D01*
X0077901Y0176718D01*
X0077484Y0176962D01*
X0077073Y0177215D01*
X0076668Y0177479D01*
X0076269Y0177752D01*
X0075878Y0178035D01*
X0075493Y0178327D01*
X0075116Y0178629D01*
X0074746Y0178940D01*
X0074384Y0179260D01*
X0074030Y0179589D01*
X0073685Y0179927D01*
X0073347Y0180272D01*
X0073018Y0180626D01*
X0072698Y0180988D01*
X0072387Y0181358D01*
X0072085Y0181735D01*
X0071793Y0182120D01*
X0071510Y0182511D01*
X0071237Y0182910D01*
X0070973Y0183315D01*
X0070720Y0183726D01*
X0070476Y0184143D01*
X0070243Y0184567D01*
X0070021Y0184995D01*
X0069809Y0185430D01*
X0069608Y0185869D01*
X0069417Y0186313D01*
X0069238Y0186761D01*
X0069070Y0187214D01*
X0068913Y0187671D01*
X0068767Y0188132D01*
X0068632Y0188596D01*
X0068509Y0189063D01*
X0068397Y0189533D01*
X0068297Y0190006D01*
X0068209Y0190481D01*
X0068132Y0190958D01*
X0068067Y0191436D01*
X0068014Y0191917D01*
X0067972Y0192398D01*
X0067943Y0192880D01*
X0067925Y0193363D01*
X0067919Y0193846D01*
X0018242Y0197674D02*
X0018244Y0197758D01*
X0018250Y0197841D01*
X0018260Y0197924D01*
X0018274Y0198007D01*
X0018291Y0198089D01*
X0018313Y0198170D01*
X0018338Y0198249D01*
X0018367Y0198328D01*
X0018400Y0198405D01*
X0018436Y0198480D01*
X0018476Y0198554D01*
X0018519Y0198626D01*
X0018566Y0198695D01*
X0018616Y0198762D01*
X0018669Y0198827D01*
X0018725Y0198889D01*
X0018783Y0198949D01*
X0018845Y0199006D01*
X0018909Y0199059D01*
X0018976Y0199110D01*
X0019045Y0199157D01*
X0019116Y0199202D01*
X0019189Y0199242D01*
X0019264Y0199279D01*
X0019341Y0199313D01*
X0019419Y0199343D01*
X0019498Y0199369D01*
X0019579Y0199392D01*
X0019661Y0199410D01*
X0019743Y0199425D01*
X0019826Y0199436D01*
X0019909Y0199443D01*
X0019993Y0199446D01*
X0020077Y0199445D01*
X0020160Y0199440D01*
X0020244Y0199431D01*
X0020326Y0199418D01*
X0020408Y0199402D01*
X0020489Y0199381D01*
X0020570Y0199357D01*
X0020648Y0199329D01*
X0020726Y0199297D01*
X0020802Y0199261D01*
X0020876Y0199222D01*
X0020948Y0199180D01*
X0021018Y0199134D01*
X0021086Y0199085D01*
X0021151Y0199033D01*
X0021214Y0198978D01*
X0021274Y0198920D01*
X0021332Y0198859D01*
X0021386Y0198795D01*
X0021438Y0198729D01*
X0021486Y0198661D01*
X0021531Y0198590D01*
X0021572Y0198517D01*
X0021611Y0198443D01*
X0021645Y0198367D01*
X0021676Y0198289D01*
X0021703Y0198210D01*
X0021727Y0198129D01*
X0021746Y0198048D01*
X0021762Y0197966D01*
X0021774Y0197883D01*
X0021782Y0197799D01*
X0021786Y0197716D01*
X0021786Y0197632D01*
X0021782Y0197549D01*
X0021774Y0197465D01*
X0021762Y0197382D01*
X0021746Y0197300D01*
X0021727Y0197219D01*
X0021703Y0197138D01*
X0021676Y0197059D01*
X0021645Y0196981D01*
X0021611Y0196905D01*
X0021572Y0196831D01*
X0021531Y0196758D01*
X0021486Y0196687D01*
X0021438Y0196619D01*
X0021386Y0196553D01*
X0021332Y0196489D01*
X0021274Y0196428D01*
X0021214Y0196370D01*
X0021151Y0196315D01*
X0021086Y0196263D01*
X0021018Y0196214D01*
X0020948Y0196168D01*
X0020876Y0196126D01*
X0020802Y0196087D01*
X0020726Y0196051D01*
X0020648Y0196019D01*
X0020570Y0195991D01*
X0020489Y0195967D01*
X0020408Y0195946D01*
X0020326Y0195930D01*
X0020244Y0195917D01*
X0020160Y0195908D01*
X0020077Y0195903D01*
X0019993Y0195902D01*
X0019909Y0195905D01*
X0019826Y0195912D01*
X0019743Y0195923D01*
X0019661Y0195938D01*
X0019579Y0195956D01*
X0019498Y0195979D01*
X0019419Y0196005D01*
X0019341Y0196035D01*
X0019264Y0196069D01*
X0019189Y0196106D01*
X0019116Y0196146D01*
X0019045Y0196191D01*
X0018976Y0196238D01*
X0018909Y0196289D01*
X0018845Y0196342D01*
X0018783Y0196399D01*
X0018725Y0196459D01*
X0018669Y0196521D01*
X0018616Y0196586D01*
X0018566Y0196653D01*
X0018519Y0196722D01*
X0018476Y0196794D01*
X0018436Y0196868D01*
X0018400Y0196943D01*
X0018367Y0197020D01*
X0018338Y0197099D01*
X0018313Y0197178D01*
X0018291Y0197259D01*
X0018274Y0197341D01*
X0018260Y0197424D01*
X0018250Y0197507D01*
X0018244Y0197590D01*
X0018242Y0197674D01*
X0018242Y0169721D02*
X0018244Y0169805D01*
X0018250Y0169888D01*
X0018260Y0169971D01*
X0018274Y0170054D01*
X0018291Y0170136D01*
X0018313Y0170217D01*
X0018338Y0170296D01*
X0018367Y0170375D01*
X0018400Y0170452D01*
X0018436Y0170527D01*
X0018476Y0170601D01*
X0018519Y0170673D01*
X0018566Y0170742D01*
X0018616Y0170809D01*
X0018669Y0170874D01*
X0018725Y0170936D01*
X0018783Y0170996D01*
X0018845Y0171053D01*
X0018909Y0171106D01*
X0018976Y0171157D01*
X0019045Y0171204D01*
X0019116Y0171249D01*
X0019189Y0171289D01*
X0019264Y0171326D01*
X0019341Y0171360D01*
X0019419Y0171390D01*
X0019498Y0171416D01*
X0019579Y0171439D01*
X0019661Y0171457D01*
X0019743Y0171472D01*
X0019826Y0171483D01*
X0019909Y0171490D01*
X0019993Y0171493D01*
X0020077Y0171492D01*
X0020160Y0171487D01*
X0020244Y0171478D01*
X0020326Y0171465D01*
X0020408Y0171449D01*
X0020489Y0171428D01*
X0020570Y0171404D01*
X0020648Y0171376D01*
X0020726Y0171344D01*
X0020802Y0171308D01*
X0020876Y0171269D01*
X0020948Y0171227D01*
X0021018Y0171181D01*
X0021086Y0171132D01*
X0021151Y0171080D01*
X0021214Y0171025D01*
X0021274Y0170967D01*
X0021332Y0170906D01*
X0021386Y0170842D01*
X0021438Y0170776D01*
X0021486Y0170708D01*
X0021531Y0170637D01*
X0021572Y0170564D01*
X0021611Y0170490D01*
X0021645Y0170414D01*
X0021676Y0170336D01*
X0021703Y0170257D01*
X0021727Y0170176D01*
X0021746Y0170095D01*
X0021762Y0170013D01*
X0021774Y0169930D01*
X0021782Y0169846D01*
X0021786Y0169763D01*
X0021786Y0169679D01*
X0021782Y0169596D01*
X0021774Y0169512D01*
X0021762Y0169429D01*
X0021746Y0169347D01*
X0021727Y0169266D01*
X0021703Y0169185D01*
X0021676Y0169106D01*
X0021645Y0169028D01*
X0021611Y0168952D01*
X0021572Y0168878D01*
X0021531Y0168805D01*
X0021486Y0168734D01*
X0021438Y0168666D01*
X0021386Y0168600D01*
X0021332Y0168536D01*
X0021274Y0168475D01*
X0021214Y0168417D01*
X0021151Y0168362D01*
X0021086Y0168310D01*
X0021018Y0168261D01*
X0020948Y0168215D01*
X0020876Y0168173D01*
X0020802Y0168134D01*
X0020726Y0168098D01*
X0020648Y0168066D01*
X0020570Y0168038D01*
X0020489Y0168014D01*
X0020408Y0167993D01*
X0020326Y0167977D01*
X0020244Y0167964D01*
X0020160Y0167955D01*
X0020077Y0167950D01*
X0019993Y0167949D01*
X0019909Y0167952D01*
X0019826Y0167959D01*
X0019743Y0167970D01*
X0019661Y0167985D01*
X0019579Y0168003D01*
X0019498Y0168026D01*
X0019419Y0168052D01*
X0019341Y0168082D01*
X0019264Y0168116D01*
X0019189Y0168153D01*
X0019116Y0168193D01*
X0019045Y0168238D01*
X0018976Y0168285D01*
X0018909Y0168336D01*
X0018845Y0168389D01*
X0018783Y0168446D01*
X0018725Y0168506D01*
X0018669Y0168568D01*
X0018616Y0168633D01*
X0018566Y0168700D01*
X0018519Y0168769D01*
X0018476Y0168841D01*
X0018436Y0168915D01*
X0018400Y0168990D01*
X0018367Y0169067D01*
X0018338Y0169146D01*
X0018313Y0169225D01*
X0018291Y0169306D01*
X0018274Y0169388D01*
X0018260Y0169471D01*
X0018250Y0169554D01*
X0018244Y0169637D01*
X0018242Y0169721D01*
X0117131Y0262743D02*
X0117137Y0263226D01*
X0117155Y0263709D01*
X0117184Y0264191D01*
X0117226Y0264672D01*
X0117279Y0265153D01*
X0117344Y0265631D01*
X0117421Y0266108D01*
X0117509Y0266583D01*
X0117609Y0267056D01*
X0117721Y0267526D01*
X0117844Y0267993D01*
X0117979Y0268457D01*
X0118125Y0268918D01*
X0118282Y0269375D01*
X0118450Y0269828D01*
X0118629Y0270276D01*
X0118820Y0270720D01*
X0119021Y0271159D01*
X0119233Y0271594D01*
X0119455Y0272022D01*
X0119688Y0272446D01*
X0119932Y0272863D01*
X0120185Y0273274D01*
X0120449Y0273679D01*
X0120722Y0274078D01*
X0121005Y0274469D01*
X0121297Y0274854D01*
X0121599Y0275231D01*
X0121910Y0275601D01*
X0122230Y0275963D01*
X0122559Y0276317D01*
X0122897Y0276662D01*
X0123242Y0277000D01*
X0123596Y0277329D01*
X0123958Y0277649D01*
X0124328Y0277960D01*
X0124705Y0278262D01*
X0125090Y0278554D01*
X0125481Y0278837D01*
X0125880Y0279110D01*
X0126285Y0279374D01*
X0126696Y0279627D01*
X0127113Y0279871D01*
X0127537Y0280104D01*
X0127965Y0280326D01*
X0128400Y0280538D01*
X0128839Y0280739D01*
X0129283Y0280930D01*
X0129731Y0281109D01*
X0130184Y0281277D01*
X0130641Y0281434D01*
X0131102Y0281580D01*
X0131566Y0281715D01*
X0132033Y0281838D01*
X0132503Y0281950D01*
X0132976Y0282050D01*
X0133451Y0282138D01*
X0133928Y0282215D01*
X0134406Y0282280D01*
X0134887Y0282333D01*
X0135368Y0282375D01*
X0135850Y0282404D01*
X0136333Y0282422D01*
X0136816Y0282428D01*
X0137299Y0282422D01*
X0137782Y0282404D01*
X0138264Y0282375D01*
X0138745Y0282333D01*
X0139226Y0282280D01*
X0139704Y0282215D01*
X0140181Y0282138D01*
X0140656Y0282050D01*
X0141129Y0281950D01*
X0141599Y0281838D01*
X0142066Y0281715D01*
X0142530Y0281580D01*
X0142991Y0281434D01*
X0143448Y0281277D01*
X0143901Y0281109D01*
X0144349Y0280930D01*
X0144793Y0280739D01*
X0145232Y0280538D01*
X0145667Y0280326D01*
X0146095Y0280104D01*
X0146519Y0279871D01*
X0146936Y0279627D01*
X0147347Y0279374D01*
X0147752Y0279110D01*
X0148151Y0278837D01*
X0148542Y0278554D01*
X0148927Y0278262D01*
X0149304Y0277960D01*
X0149674Y0277649D01*
X0150036Y0277329D01*
X0150390Y0277000D01*
X0150735Y0276662D01*
X0151073Y0276317D01*
X0151402Y0275963D01*
X0151722Y0275601D01*
X0152033Y0275231D01*
X0152335Y0274854D01*
X0152627Y0274469D01*
X0152910Y0274078D01*
X0153183Y0273679D01*
X0153447Y0273274D01*
X0153700Y0272863D01*
X0153944Y0272446D01*
X0154177Y0272022D01*
X0154399Y0271594D01*
X0154611Y0271159D01*
X0154812Y0270720D01*
X0155003Y0270276D01*
X0155182Y0269828D01*
X0155350Y0269375D01*
X0155507Y0268918D01*
X0155653Y0268457D01*
X0155788Y0267993D01*
X0155911Y0267526D01*
X0156023Y0267056D01*
X0156123Y0266583D01*
X0156211Y0266108D01*
X0156288Y0265631D01*
X0156353Y0265153D01*
X0156406Y0264672D01*
X0156448Y0264191D01*
X0156477Y0263709D01*
X0156495Y0263226D01*
X0156501Y0262743D01*
X0156495Y0262260D01*
X0156477Y0261777D01*
X0156448Y0261295D01*
X0156406Y0260814D01*
X0156353Y0260333D01*
X0156288Y0259855D01*
X0156211Y0259378D01*
X0156123Y0258903D01*
X0156023Y0258430D01*
X0155911Y0257960D01*
X0155788Y0257493D01*
X0155653Y0257029D01*
X0155507Y0256568D01*
X0155350Y0256111D01*
X0155182Y0255658D01*
X0155003Y0255210D01*
X0154812Y0254766D01*
X0154611Y0254327D01*
X0154399Y0253892D01*
X0154177Y0253464D01*
X0153944Y0253040D01*
X0153700Y0252623D01*
X0153447Y0252212D01*
X0153183Y0251807D01*
X0152910Y0251408D01*
X0152627Y0251017D01*
X0152335Y0250632D01*
X0152033Y0250255D01*
X0151722Y0249885D01*
X0151402Y0249523D01*
X0151073Y0249169D01*
X0150735Y0248824D01*
X0150390Y0248486D01*
X0150036Y0248157D01*
X0149674Y0247837D01*
X0149304Y0247526D01*
X0148927Y0247224D01*
X0148542Y0246932D01*
X0148151Y0246649D01*
X0147752Y0246376D01*
X0147347Y0246112D01*
X0146936Y0245859D01*
X0146519Y0245615D01*
X0146095Y0245382D01*
X0145667Y0245160D01*
X0145232Y0244948D01*
X0144793Y0244747D01*
X0144349Y0244556D01*
X0143901Y0244377D01*
X0143448Y0244209D01*
X0142991Y0244052D01*
X0142530Y0243906D01*
X0142066Y0243771D01*
X0141599Y0243648D01*
X0141129Y0243536D01*
X0140656Y0243436D01*
X0140181Y0243348D01*
X0139704Y0243271D01*
X0139226Y0243206D01*
X0138745Y0243153D01*
X0138264Y0243111D01*
X0137782Y0243082D01*
X0137299Y0243064D01*
X0136816Y0243058D01*
X0136333Y0243064D01*
X0135850Y0243082D01*
X0135368Y0243111D01*
X0134887Y0243153D01*
X0134406Y0243206D01*
X0133928Y0243271D01*
X0133451Y0243348D01*
X0132976Y0243436D01*
X0132503Y0243536D01*
X0132033Y0243648D01*
X0131566Y0243771D01*
X0131102Y0243906D01*
X0130641Y0244052D01*
X0130184Y0244209D01*
X0129731Y0244377D01*
X0129283Y0244556D01*
X0128839Y0244747D01*
X0128400Y0244948D01*
X0127965Y0245160D01*
X0127537Y0245382D01*
X0127113Y0245615D01*
X0126696Y0245859D01*
X0126285Y0246112D01*
X0125880Y0246376D01*
X0125481Y0246649D01*
X0125090Y0246932D01*
X0124705Y0247224D01*
X0124328Y0247526D01*
X0123958Y0247837D01*
X0123596Y0248157D01*
X0123242Y0248486D01*
X0122897Y0248824D01*
X0122559Y0249169D01*
X0122230Y0249523D01*
X0121910Y0249885D01*
X0121599Y0250255D01*
X0121297Y0250632D01*
X0121005Y0251017D01*
X0120722Y0251408D01*
X0120449Y0251807D01*
X0120185Y0252212D01*
X0119932Y0252623D01*
X0119688Y0253040D01*
X0119455Y0253464D01*
X0119233Y0253892D01*
X0119021Y0254327D01*
X0118820Y0254766D01*
X0118629Y0255210D01*
X0118450Y0255658D01*
X0118282Y0256111D01*
X0118125Y0256568D01*
X0117979Y0257029D01*
X0117844Y0257493D01*
X0117721Y0257960D01*
X0117609Y0258430D01*
X0117509Y0258903D01*
X0117421Y0259378D01*
X0117344Y0259855D01*
X0117279Y0260333D01*
X0117226Y0260814D01*
X0117184Y0261295D01*
X0117155Y0261777D01*
X0117137Y0262260D01*
X0117131Y0262743D01*
X0008863Y0345200D02*
X0008863Y0345420D01*
X0264769Y0345420D01*
D11*
X0264863Y0109200D02*
X0008740Y0109200D01*
X0008863Y0205200D01*
X0026863Y0205200D01*
X0026863Y0245200D01*
X0008863Y0245200D01*
X0008863Y0345200D01*
X0264863Y0345200D01*
X0264863Y0245200D01*
X0246863Y0245200D01*
X0246863Y0205200D01*
X0264863Y0205200D01*
X0264863Y0109200D01*
D12*
X0207954Y0213414D02*
X0203684Y0213414D01*
X0203684Y0219820D01*
X0173350Y0172956D02*
X0169080Y0172956D01*
X0169080Y0166551D01*
X0173350Y0166551D01*
X0171215Y0169754D02*
X0169080Y0169754D01*
X0142230Y0164703D02*
X0137960Y0164703D01*
X0137960Y0171108D01*
X0128190Y0172789D02*
X0128190Y0166384D01*
X0123919Y0172789D01*
X0123919Y0166384D01*
X0115780Y0205762D02*
X0115780Y0212167D01*
X0111509Y0212167D02*
X0111509Y0205762D01*
X0115780Y0205762D02*
X0111509Y0212167D01*
X0149421Y0285109D02*
X0153691Y0285109D01*
X0151556Y0288312D02*
X0149421Y0288312D01*
X0149421Y0291514D02*
X0149421Y0285109D01*
X0149421Y0291514D02*
X0153691Y0291514D01*
X0145863Y0321200D02*
X0142863Y0321200D01*
X0142863Y0320700D01*
X0140863Y0320700D01*
X0140863Y0321200D01*
X0137863Y0321200D01*
X0137863Y0321700D01*
X0135863Y0321700D01*
X0135863Y0321200D01*
X0132863Y0321200D01*
X0132863Y0320700D01*
X0130863Y0320700D01*
X0130863Y0321200D01*
X0127863Y0321200D01*
X0127863Y0324200D01*
X0127863Y0337200D01*
X0127863Y0338200D01*
X0129363Y0338200D01*
X0129363Y0337200D01*
X0129363Y0336200D01*
X0134363Y0336200D01*
X0134363Y0337200D01*
X0135863Y0337200D01*
X0137863Y0337200D01*
X0137863Y0324700D01*
X0136863Y0325700D01*
X0135863Y0324700D01*
X0135863Y0337200D01*
X0134363Y0337200D02*
X0134363Y0338200D01*
X0139363Y0338200D01*
X0139363Y0337200D01*
X0137863Y0337200D01*
X0139363Y0337200D02*
X0139363Y0336200D01*
X0144363Y0336200D01*
X0144363Y0337200D01*
X0145863Y0337200D01*
X0145863Y0338200D01*
X0144363Y0338200D01*
X0144363Y0337200D01*
X0145863Y0337200D02*
X0145863Y0324200D01*
X0138363Y0324200D01*
X0137863Y0324700D01*
X0135863Y0324700D02*
X0135363Y0324200D01*
X0127863Y0324200D01*
X0125863Y0324200D02*
X0125863Y0337200D01*
X0125863Y0338200D01*
X0124363Y0338200D01*
X0124363Y0337200D01*
X0124363Y0336200D01*
X0119363Y0336200D01*
X0119363Y0337200D01*
X0117863Y0337200D01*
X0117863Y0324700D01*
X0116863Y0325700D01*
X0115863Y0324700D01*
X0115863Y0337200D01*
X0117863Y0337200D01*
X0119363Y0337200D02*
X0119363Y0338200D01*
X0114363Y0338200D01*
X0114363Y0337200D01*
X0115863Y0337200D01*
X0114363Y0337200D02*
X0114363Y0336200D01*
X0109363Y0336200D01*
X0109363Y0337200D01*
X0107863Y0337200D01*
X0107863Y0338200D01*
X0109363Y0338200D01*
X0109363Y0337200D01*
X0107863Y0337200D02*
X0107863Y0324200D01*
X0107863Y0321200D01*
X0110863Y0321200D01*
X0110863Y0320700D01*
X0112863Y0320700D01*
X0112863Y0321200D01*
X0115863Y0321200D01*
X0115863Y0321700D01*
X0117863Y0321700D01*
X0117863Y0321200D01*
X0120863Y0321200D01*
X0120863Y0320700D01*
X0122863Y0320700D01*
X0122863Y0321200D01*
X0125863Y0321200D01*
X0125863Y0324200D01*
X0118363Y0324200D01*
X0117863Y0324700D01*
X0115863Y0324700D02*
X0115363Y0324200D01*
X0107863Y0324200D01*
X0107863Y0338200D02*
X0107863Y0340200D01*
X0115863Y0340200D01*
X0115863Y0339700D01*
X0117863Y0339700D01*
X0117863Y0340200D01*
X0125863Y0340200D01*
X0125863Y0338200D01*
X0125863Y0337200D02*
X0124363Y0337200D01*
X0127863Y0337200D02*
X0129363Y0337200D01*
X0127863Y0338200D02*
X0127863Y0340200D01*
X0135863Y0340200D01*
X0135863Y0339700D01*
X0137863Y0339700D01*
X0137863Y0340200D01*
X0145863Y0340200D01*
X0145863Y0338200D01*
X0145863Y0324200D02*
X0145863Y0321200D01*
D13*
X0119115Y0239359D02*
X0119115Y0239119D01*
D14*
X0119845Y0235129D02*
X0119845Y0233628D01*
X0119345Y0233628D02*
X0120345Y0233628D01*
X0120818Y0233878D02*
X0121068Y0233628D01*
X0121819Y0233628D01*
X0121819Y0234629D01*
X0122291Y0234378D02*
X0122792Y0234378D01*
X0122541Y0234879D02*
X0122792Y0235129D01*
X0122541Y0234879D02*
X0122541Y0233628D01*
X0120818Y0233878D02*
X0120818Y0234629D01*
X0119845Y0235129D02*
X0119345Y0234629D01*
X0115005Y0233231D02*
X0114004Y0233231D01*
X0114504Y0233231D02*
X0114504Y0234732D01*
X0114004Y0234232D01*
X0113531Y0234482D02*
X0113281Y0234732D01*
X0112781Y0234732D01*
X0112530Y0234482D01*
X0112530Y0233481D01*
X0112781Y0233231D01*
X0113281Y0233231D01*
X0113531Y0233481D01*
X0116281Y0227507D02*
X0116281Y0226006D01*
X0115781Y0226006D02*
X0116782Y0226006D01*
X0117254Y0226006D02*
X0118255Y0227007D01*
X0118255Y0227257D01*
X0118005Y0227507D01*
X0117504Y0227507D01*
X0117254Y0227257D01*
X0116281Y0227507D02*
X0115781Y0227007D01*
X0117254Y0226006D02*
X0118255Y0226006D01*
X0118727Y0226006D02*
X0118727Y0227507D01*
X0119478Y0227007D02*
X0118727Y0226506D01*
X0119478Y0226006D01*
X0124759Y0235744D02*
X0124759Y0237245D01*
X0125509Y0237245D01*
X0125760Y0236995D01*
X0125760Y0236494D01*
X0125509Y0236244D01*
X0124759Y0236244D01*
X0125259Y0236244D02*
X0125760Y0235744D01*
X0126232Y0235994D02*
X0126482Y0235744D01*
X0126983Y0235744D01*
X0127233Y0235994D01*
X0127233Y0236494D01*
X0126983Y0236745D01*
X0126733Y0236745D01*
X0126232Y0236494D01*
X0126232Y0237245D01*
X0127233Y0237245D01*
X0099313Y0301530D02*
X0099313Y0302531D01*
X0099313Y0302031D02*
X0097812Y0302031D01*
X0098313Y0301530D01*
X0098062Y0303004D02*
X0097812Y0303254D01*
X0097812Y0303754D01*
X0098062Y0304005D01*
X0099063Y0303004D01*
X0099313Y0303254D01*
X0099313Y0303754D01*
X0099063Y0304005D01*
X0098062Y0304005D01*
X0097812Y0304477D02*
X0099313Y0304477D01*
X0098813Y0304477D02*
X0098313Y0305228D01*
X0098813Y0304477D02*
X0099313Y0305228D01*
X0099063Y0303004D02*
X0098062Y0303004D01*
X0091813Y0303031D02*
X0091313Y0302531D01*
X0091313Y0302781D02*
X0091313Y0302030D01*
X0091813Y0302030D02*
X0090312Y0302030D01*
X0090312Y0302781D01*
X0090562Y0303031D01*
X0091063Y0303031D01*
X0091313Y0302781D01*
X0090813Y0303504D02*
X0090312Y0304004D01*
X0091813Y0304004D01*
X0091813Y0303504D02*
X0091813Y0304505D01*
X0091813Y0304977D02*
X0091813Y0305978D01*
X0091813Y0305477D02*
X0090312Y0305477D01*
X0090813Y0304977D01*
X0118328Y0305276D02*
X0119830Y0305276D01*
X0119830Y0305776D02*
X0119830Y0304775D01*
X0119830Y0304303D02*
X0119329Y0303802D01*
X0119329Y0304053D02*
X0119329Y0303302D01*
X0119830Y0303302D02*
X0118328Y0303302D01*
X0118328Y0304053D01*
X0118579Y0304303D01*
X0119079Y0304303D01*
X0119329Y0304053D01*
X0118829Y0304775D02*
X0118328Y0305276D01*
X0118655Y0307797D02*
X0118154Y0308297D01*
X0119655Y0308297D01*
X0119655Y0307797D02*
X0119655Y0308798D01*
X0119655Y0309270D02*
X0118655Y0310271D01*
X0118404Y0310271D01*
X0118154Y0310021D01*
X0118154Y0309520D01*
X0118404Y0309270D01*
X0119655Y0309270D02*
X0119655Y0310271D01*
X0119655Y0310743D02*
X0118154Y0310743D01*
X0118655Y0311494D02*
X0119155Y0310743D01*
X0119655Y0311494D01*
X0142490Y0309531D02*
X0142490Y0309030D01*
X0142740Y0308780D01*
X0142740Y0308308D02*
X0143241Y0308308D01*
X0143491Y0308058D01*
X0143491Y0307307D01*
X0143991Y0307307D02*
X0142490Y0307307D01*
X0142490Y0308058D01*
X0142740Y0308308D01*
X0143491Y0307807D02*
X0143991Y0308308D01*
X0143991Y0308780D02*
X0142990Y0309781D01*
X0142740Y0309781D01*
X0142490Y0309531D01*
X0143991Y0309781D02*
X0143991Y0308780D01*
X0143921Y0305937D02*
X0143420Y0305186D01*
X0142920Y0305937D01*
X0142420Y0305186D02*
X0143921Y0305186D01*
X0143921Y0304714D02*
X0143921Y0303713D01*
X0142920Y0304714D01*
X0142670Y0304714D01*
X0142420Y0304464D01*
X0142420Y0303963D01*
X0142670Y0303713D01*
X0142420Y0302740D02*
X0143921Y0302740D01*
X0143921Y0302240D02*
X0143921Y0303240D01*
X0142920Y0302240D02*
X0142420Y0302740D01*
X0072184Y0222053D02*
X0072435Y0221802D01*
X0072435Y0221302D01*
X0072184Y0221052D01*
X0071184Y0222053D01*
X0072184Y0222053D01*
X0071184Y0222053D02*
X0070933Y0221802D01*
X0070933Y0221302D01*
X0071184Y0221052D01*
X0072184Y0221052D01*
X0072435Y0220579D02*
X0072435Y0219579D01*
X0072435Y0219106D02*
X0071934Y0218606D01*
X0071934Y0218856D02*
X0071934Y0218105D01*
X0072435Y0218105D02*
X0070933Y0218105D01*
X0070933Y0218856D01*
X0071184Y0219106D01*
X0071684Y0219106D01*
X0071934Y0218856D01*
X0071434Y0219579D02*
X0070933Y0220079D01*
X0072435Y0220079D01*
X0061200Y0220155D02*
X0060200Y0221155D01*
X0059949Y0221155D01*
X0059699Y0220905D01*
X0059699Y0220405D01*
X0059949Y0220155D01*
X0059699Y0219182D02*
X0061200Y0219182D01*
X0061200Y0219682D02*
X0061200Y0218681D01*
X0060200Y0218681D02*
X0059699Y0219182D01*
X0061200Y0220155D02*
X0061200Y0221155D01*
X0061200Y0221628D02*
X0059699Y0221628D01*
X0060200Y0222379D02*
X0060700Y0221628D01*
X0061200Y0222379D01*
X0055413Y0117788D02*
X0054913Y0117788D01*
X0054663Y0117538D01*
X0054190Y0117538D02*
X0053940Y0117788D01*
X0053440Y0117788D01*
X0053189Y0117538D01*
X0053189Y0116537D01*
X0053440Y0116287D01*
X0053940Y0116287D01*
X0054190Y0116537D01*
X0054663Y0116287D02*
X0055663Y0117288D01*
X0055663Y0117538D01*
X0055413Y0117788D01*
X0055663Y0116287D02*
X0054663Y0116287D01*
X0058200Y0115970D02*
X0059201Y0116970D01*
X0059201Y0115970D01*
X0058951Y0115719D01*
X0058450Y0115719D01*
X0058200Y0115970D01*
X0058200Y0116970D01*
X0058450Y0117221D01*
X0058951Y0117221D01*
X0059201Y0116970D01*
X0059673Y0115970D02*
X0059923Y0115970D01*
X0059923Y0115719D01*
X0059673Y0115719D01*
X0059673Y0115970D01*
X0060410Y0115719D02*
X0061411Y0115719D01*
X0060910Y0115719D02*
X0060910Y0117221D01*
X0060410Y0116720D01*
X0061883Y0116720D02*
X0061883Y0115970D01*
X0062133Y0115719D01*
X0062884Y0115719D01*
X0062884Y0116720D01*
X0063356Y0116470D02*
X0063857Y0116470D01*
X0063607Y0116970D02*
X0063857Y0117221D01*
X0063607Y0116970D02*
X0063607Y0115719D01*
X0229408Y0189205D02*
X0229408Y0189705D01*
X0229408Y0189455D02*
X0230660Y0189455D01*
X0230910Y0189205D01*
X0230910Y0188955D01*
X0230660Y0188705D01*
X0230910Y0190178D02*
X0229408Y0190178D01*
X0229408Y0190928D01*
X0229659Y0191179D01*
X0230159Y0191179D01*
X0230409Y0190928D01*
X0230409Y0190178D01*
X0229909Y0191651D02*
X0229408Y0192151D01*
X0230910Y0192151D01*
X0230910Y0191651D02*
X0230910Y0192652D01*
D15*
X0055928Y0127298D02*
X0053428Y0127298D01*
D16*
X0044028Y0135398D02*
X0044028Y0119198D01*
X0077828Y0119198D01*
X0077828Y0135398D01*
X0044028Y0135398D01*
X0041157Y0237265D02*
X0104937Y0237265D01*
X0104937Y0332147D01*
X0041157Y0332147D01*
X0041157Y0237265D01*
X0100775Y0314850D02*
X0100025Y0315601D01*
X0100775Y0314850D02*
X0102276Y0314850D01*
X0103027Y0315601D01*
X0103027Y0316351D01*
X0102276Y0317102D01*
X0100775Y0317102D01*
X0100025Y0317853D01*
X0100025Y0318603D01*
X0100775Y0319354D01*
X0102276Y0319354D01*
X0103027Y0318603D01*
X0104628Y0319354D02*
X0104628Y0314850D01*
X0106130Y0316351D01*
X0107631Y0314850D01*
X0107631Y0319354D01*
X0109232Y0319354D02*
X0110734Y0319354D01*
X0109983Y0319354D02*
X0109983Y0314850D01*
X0109232Y0314850D02*
X0110734Y0314850D01*
X0113803Y0314850D02*
X0113803Y0319354D01*
X0112302Y0319354D02*
X0115304Y0319354D01*
X0116906Y0318603D02*
X0116906Y0315601D01*
X0117656Y0314850D01*
X0119158Y0314850D01*
X0119908Y0315601D01*
X0121510Y0314850D02*
X0121510Y0319354D01*
X0119908Y0318603D02*
X0119158Y0319354D01*
X0117656Y0319354D01*
X0116906Y0318603D01*
X0121510Y0317102D02*
X0124512Y0317102D01*
X0124512Y0319354D02*
X0124512Y0314850D01*
X0132302Y0314850D02*
X0135304Y0314850D01*
X0136906Y0314850D02*
X0139908Y0314850D01*
X0141510Y0314850D02*
X0143761Y0314850D01*
X0144512Y0315601D01*
X0144512Y0318603D01*
X0143761Y0319354D01*
X0141510Y0319354D01*
X0141510Y0314850D01*
X0138407Y0317102D02*
X0136906Y0317102D01*
X0136906Y0319354D02*
X0136906Y0314850D01*
X0136906Y0319354D02*
X0139908Y0319354D01*
X0141245Y0324159D02*
X0140111Y0325293D01*
X0143513Y0325293D01*
X0143513Y0324159D02*
X0143513Y0326428D01*
X0132302Y0319354D02*
X0132302Y0314850D01*
X0123513Y0324159D02*
X0123513Y0326428D01*
X0123513Y0325293D02*
X0120111Y0325293D01*
X0121245Y0324159D01*
X0160081Y0341223D02*
X0260081Y0341223D01*
X0260081Y0239223D01*
X0160081Y0239223D01*
X0160081Y0341223D01*
X0168928Y0315174D02*
X0170629Y0313473D01*
X0170629Y0315741D01*
X0172331Y0315174D02*
X0168928Y0315174D01*
X0190928Y0315040D02*
X0190928Y0316174D01*
X0191495Y0316741D01*
X0192062Y0316741D01*
X0192629Y0316174D01*
X0193196Y0316741D01*
X0193763Y0316741D01*
X0194331Y0316174D01*
X0194331Y0315040D01*
X0193763Y0314473D01*
X0192629Y0315607D02*
X0192629Y0316174D01*
X0191495Y0314473D02*
X0190928Y0315040D01*
X0195192Y0302291D02*
X0195192Y0297787D01*
X0195192Y0300039D02*
X0198195Y0300039D01*
X0199796Y0300039D02*
X0201297Y0300039D01*
X0199796Y0297787D02*
X0202799Y0297787D01*
X0204400Y0297787D02*
X0204400Y0302291D01*
X0207403Y0297787D01*
X0207403Y0302291D01*
X0209004Y0302291D02*
X0209004Y0297787D01*
X0212007Y0297787D01*
X0213608Y0299289D02*
X0215109Y0297787D01*
X0216610Y0299289D01*
X0216610Y0302291D01*
X0213608Y0302291D02*
X0213608Y0299289D01*
X0202799Y0302291D02*
X0199796Y0302291D01*
X0199796Y0297787D01*
X0198195Y0297787D02*
X0198195Y0302291D01*
X0219928Y0317040D02*
X0220495Y0316473D01*
X0219928Y0317040D02*
X0219928Y0318174D01*
X0220495Y0318741D01*
X0221062Y0318741D01*
X0223331Y0316473D01*
X0223331Y0318741D01*
X0247928Y0314607D02*
X0251331Y0314607D01*
X0251331Y0313473D02*
X0251331Y0315741D01*
X0249062Y0313473D02*
X0247928Y0314607D01*
X0213261Y0248562D02*
X0211760Y0248562D01*
X0211009Y0247812D01*
X0211009Y0244809D01*
X0211760Y0244058D01*
X0213261Y0244058D01*
X0214012Y0244809D01*
X0214012Y0246310D01*
X0212511Y0246310D01*
X0214012Y0247812D02*
X0213261Y0248562D01*
X0209408Y0248562D02*
X0206406Y0248562D01*
X0206406Y0244058D01*
X0209408Y0244058D01*
X0207907Y0246310D02*
X0206406Y0246310D01*
X0204804Y0246310D02*
X0204804Y0247812D01*
X0204054Y0248562D01*
X0201802Y0248562D01*
X0201802Y0244058D01*
X0201802Y0245560D02*
X0204054Y0245560D01*
X0204804Y0246310D01*
X0203303Y0245560D02*
X0204804Y0244058D01*
X0195596Y0244809D02*
X0194846Y0244058D01*
X0193344Y0244058D01*
X0192594Y0244809D01*
X0190992Y0245560D02*
X0190992Y0248562D01*
X0192594Y0247812D02*
X0193344Y0248562D01*
X0194846Y0248562D01*
X0195596Y0247812D01*
X0195596Y0247061D01*
X0194846Y0246310D01*
X0195596Y0245560D01*
X0195596Y0244809D01*
X0194846Y0246310D02*
X0194095Y0246310D01*
X0190992Y0245560D02*
X0189491Y0244058D01*
X0187990Y0245560D01*
X0187990Y0248562D01*
X0186388Y0247812D02*
X0186388Y0247061D01*
X0185638Y0246310D01*
X0186388Y0245560D01*
X0186388Y0244809D01*
X0185638Y0244058D01*
X0184137Y0244058D01*
X0183386Y0244809D01*
X0184887Y0246310D02*
X0185638Y0246310D01*
X0186388Y0247812D02*
X0185638Y0248562D01*
X0184137Y0248562D01*
X0183386Y0247812D01*
X0147773Y0144540D02*
X0240088Y0144540D01*
X0240088Y0124137D01*
X0238539Y0121722D01*
X0236179Y0119389D01*
X0147805Y0119478D01*
X0147806Y0127082D01*
X0147815Y0130903D01*
X0147806Y0127095D02*
X0147784Y0141822D01*
X0147773Y0142471D01*
X0147773Y0144540D01*
X0179944Y0116674D02*
X0182947Y0116674D01*
X0181445Y0116674D02*
X0181445Y0112170D01*
X0184548Y0112170D02*
X0184548Y0116674D01*
X0186800Y0116674D01*
X0187551Y0115923D01*
X0187551Y0114422D01*
X0186800Y0113671D01*
X0184548Y0113671D01*
X0186049Y0113671D02*
X0187551Y0112170D01*
X0189152Y0112170D02*
X0190653Y0112170D01*
X0189903Y0112170D02*
X0189903Y0116674D01*
X0190653Y0116674D02*
X0189152Y0116674D01*
X0192221Y0115173D02*
X0192221Y0112170D01*
X0192221Y0114422D02*
X0195224Y0114422D01*
X0195224Y0115173D02*
X0195224Y0112170D01*
X0196825Y0112921D02*
X0197576Y0112170D01*
X0199077Y0112170D01*
X0199828Y0112921D01*
X0199828Y0115923D02*
X0199077Y0116674D01*
X0197576Y0116674D01*
X0196825Y0115923D01*
X0196825Y0112921D01*
X0195224Y0115173D02*
X0193723Y0116674D01*
X0192221Y0115173D01*
X0215852Y0138092D02*
X0216603Y0137342D01*
X0215852Y0138092D02*
X0215852Y0139594D01*
X0216603Y0140344D01*
X0217354Y0140344D01*
X0220356Y0137342D01*
X0220356Y0140344D01*
X0230344Y0139000D02*
X0231845Y0137498D01*
X0230344Y0139000D02*
X0234848Y0139000D01*
X0234848Y0140501D02*
X0234848Y0137498D01*
D17*
X0091735Y0281205D02*
X0088666Y0281205D01*
X0088666Y0285809D01*
X0091735Y0285809D01*
X0090201Y0283507D02*
X0088666Y0283507D01*
X0087131Y0284275D02*
X0087131Y0285042D01*
X0086364Y0285809D01*
X0084829Y0285809D01*
X0084062Y0285042D01*
X0080993Y0285809D02*
X0080993Y0281205D01*
X0082527Y0281205D02*
X0079458Y0281205D01*
X0077923Y0283507D02*
X0074854Y0283507D01*
X0073320Y0283507D02*
X0073320Y0285042D01*
X0072552Y0285809D01*
X0070250Y0285809D01*
X0070250Y0281205D01*
X0070250Y0282740D02*
X0072552Y0282740D01*
X0073320Y0283507D01*
X0068716Y0282740D02*
X0068716Y0281973D01*
X0067948Y0281205D01*
X0066414Y0281205D01*
X0065646Y0281973D01*
X0064112Y0281205D02*
X0061042Y0281205D01*
X0061042Y0285809D01*
X0064112Y0285809D01*
X0065646Y0285042D02*
X0065646Y0284275D01*
X0066414Y0283507D01*
X0067948Y0283507D01*
X0068716Y0282740D01*
X0068716Y0285042D02*
X0067948Y0285809D01*
X0066414Y0285809D01*
X0065646Y0285042D01*
X0062577Y0283507D02*
X0061042Y0283507D01*
X0079458Y0284275D02*
X0080993Y0285809D01*
X0084062Y0281205D02*
X0087131Y0284275D01*
X0087131Y0281205D02*
X0084062Y0281205D01*
D18*
X0094863Y0305480D03*
X0125594Y0307708D03*
X0135599Y0307558D03*
X0065009Y0219173D03*
D19*
X0126351Y0228862D03*
M02*
