%
M48
M72
T01C0.02362
T02C0.03543
T03C0.03600
T04C0.04000
T05C0.04724
T06C0.06700
T07C0.08661
T08C0.39370
%
T01
X82863Y153200
X83637Y160801
X46626Y183749
X34845Y205419
X53790Y254084
X52688Y267585
X67374Y271652
X81802Y260087
X83023Y250320
X96088Y255500
X109825Y228080
X94900Y291815
X115372Y295524
X116645Y301232
X31026Y292782
X14265Y293896
X30467Y316811
X30300Y260125
T02
X20014Y197674
X20014Y169721
T03
X111863Y331200
X121863Y331200
X131863Y331200
X141863Y331200
X154119Y131226
X174069Y131223
X213312Y130689
X232295Y130573
T04
X30161Y126099
X30161Y136099
X30161Y146099
X30161Y156099
X125442Y156876
X144896Y156872
X162863Y159200
X213410Y130094
X232863Y131200
X242843Y156924
X242726Y170903
X243115Y184606
T05
X243105Y184654
X243105Y170874
X243105Y157095
T06
X162851Y159160
X144904Y156906
X125448Y156839
T07
X169081Y327223
X189081Y327223
X228081Y327223
X249081Y327223
T08
X186029Y193846
X136816Y262743
X87604Y193846
M30
